<svg width="536" height="168" viewBox="0 0 536 168" fill="none" xmlns="http://www.w3.org/2000/svg">
<path d="M11.3438 160.312C6.85938 160.312 4 157.391 4 152.812V150.25C4 145.672 6.85938 142.75 11.3438 142.75C15.8281 142.75 18.6875 145.672 18.6875 150.25V152.812C18.6875 157.391 15.8281 160.312 11.3438 160.312ZM11.3438 145.094C8.4375 145.094 6.625 147.156 6.625 150.484V152.562C6.625 155.906 8.4375 157.953 11.3438 157.953C14.25 157.953 16.0625 155.906 16.0625 152.562V150.484C16.0625 147.156 14.25 145.094 11.3438 145.094ZM28.2969 150.656L35.6875 143.047H38.9062L32.3281 149.766L39.375 160H36.2188L30.4375 151.578L28.0938 153.828V160H25.4375V136.391H28.0938V150.656H28.2969ZM58.3125 160H44.2656V157.797H50.0625V138.594H44.3125V136.391H52.7188V157.797H58.3125V160ZM77.75 148.328H75.125C74.7969 146.344 73.1406 145.094 70.9531 145.094C68 145.094 66.3594 147.109 66.3594 150.75V152.281C66.3594 155.922 68 157.922 70.9531 157.922C73.1406 157.922 74.7969 156.688 75.125 154.75H77.75C77.3281 158.203 74.75 160.312 71 160.312C66.3906 160.312 63.7031 157.484 63.7031 152.625V150.406C63.7031 145.547 66.3906 142.719 71 142.719C74.75 142.719 77.3125 144.844 77.75 148.328ZM83.5156 160V136.391H86.0781V146.047H86.2969C87.1875 143.938 89.1406 142.75 91.7344 142.75C95.4219 142.75 97.4219 144.969 97.4219 149.016V160H94.7656V149.688C94.7656 146.641 93.5156 145.188 90.8594 145.188C88.0625 145.188 86.1719 147.141 86.1719 150.031V160H83.5156ZM106.844 148.719C106.844 143.422 108.438 138.812 111.547 135.281H114.188C110.953 139.828 109.594 143.812 109.594 148.719C109.594 153.625 110.953 157.609 114.188 162.156H111.547C108.438 158.625 106.844 154.031 106.844 148.719ZM402.766 162.141H400.172L411.156 135.312H413.766L402.766 162.141ZM529.062 148.719C529.062 154.031 527.469 158.625 524.359 162.156H521.719C524.953 157.609 526.312 153.625 526.312 148.719C526.312 143.812 524.953 139.828 521.719 135.281H524.359C527.469 138.812 529.062 143.422 529.062 148.719Z" fill="black"/>
<path d="M130.047 160.516C125.141 160.516 122.438 156.328 122.438 148.734C122.438 141.141 125.141 136.953 130.047 136.953C134.938 136.953 137.656 141.141 137.656 148.734C137.656 156.328 134.938 160.516 130.047 160.516ZM125.172 148.734C125.172 149.625 125.219 150.453 125.281 151.219L134.375 143.625C133.641 140.828 132.172 139.391 130.047 139.391C126.859 139.391 125.172 142.609 125.172 148.734ZM130.047 158.078C133.234 158.078 134.906 154.844 134.906 148.734C134.906 147.828 134.875 147 134.797 146.219L125.734 153.875C126.469 156.641 127.922 158.078 130.047 158.078ZM149.812 160.094C148.266 160.094 146.984 158.797 146.984 157.203C146.984 155.625 148.266 154.328 149.812 154.328C151.359 154.328 152.641 155.625 152.641 157.203C152.641 158.797 151.359 160.094 149.812 160.094ZM177.328 152.766C177.328 157.234 174.109 160.469 169.641 160.469C165.203 160.469 162 157.25 162 152.766C162 150.125 162.891 147.734 165.047 144.594C165.25 144.25 169.938 137.688 170.094 137.453H173.266L167.109 145.906C166.422 146.875 166.484 146.812 166.375 147.062L166.609 147.188C167.281 146.281 168.906 145.609 170.344 145.609C174.359 145.609 177.328 148.656 177.328 152.766ZM169.656 158.016C172.5 158.016 174.656 155.797 174.656 152.906C174.656 150 172.5 147.781 169.656 147.781C166.828 147.781 164.672 150 164.672 152.906C164.672 155.797 166.828 158.016 169.656 158.016ZM183.969 160L194.203 140.125V139.922H181.969V137.453H197.016V140L186.906 160H183.969Z" fill="#C63232"/>
<path d="M228.953 160.516C224.047 160.516 221.344 156.328 221.344 148.734C221.344 141.141 224.047 136.953 228.953 136.953C233.844 136.953 236.562 141.141 236.562 148.734C236.562 156.328 233.844 160.516 228.953 160.516ZM224.078 148.734C224.078 149.625 224.125 150.453 224.188 151.219L233.281 143.625C232.547 140.828 231.078 139.391 228.953 139.391C225.766 139.391 224.078 142.609 224.078 148.734ZM228.953 158.078C232.141 158.078 233.812 154.844 233.812 148.734C233.812 147.828 233.781 147 233.703 146.219L224.641 153.875C225.375 156.641 226.828 158.078 228.953 158.078ZM248.719 160.094C247.172 160.094 245.891 158.797 245.891 157.203C245.891 155.625 247.172 154.328 248.719 154.328C250.266 154.328 251.547 155.625 251.547 157.203C251.547 158.797 250.266 160.094 248.719 160.094ZM261.312 143.797C261.312 139.828 264.25 136.984 268.359 136.984C272.5 136.984 275.344 139.547 275.344 143.312C275.344 145.656 274.281 147.531 270.688 151.453L265.375 157.234V157.5H275.703V160H261.438V158.094L269.062 149.609C271.922 146.406 272.609 145.203 272.609 143.422C272.609 141 270.906 139.406 268.281 139.406C265.688 139.406 263.969 141.141 263.969 143.797V143.891H261.312V143.797ZM282.875 160L293.109 140.125V139.922H280.875V137.453H295.922V140L285.812 160H282.875Z" fill="#5AA000"/>
<path d="M320.656 143.797C320.656 139.828 323.594 136.984 327.703 136.984C331.844 136.984 334.688 139.547 334.688 143.312C334.688 145.656 333.625 147.531 330.031 151.453L324.719 157.234V157.5H335.047V160H320.781V158.094L328.406 149.609C331.266 146.406 331.953 145.203 331.953 143.422C331.953 141 330.25 139.406 327.625 139.406C325.031 139.406 323.312 141.141 323.312 143.797V143.891H320.656V143.797ZM347.703 160.5C343.016 160.5 339.75 157.812 339.75 153.969C339.75 151.172 341.562 148.891 344.344 148.219V147.969C342.078 147.344 340.656 145.406 340.656 142.953C340.656 139.438 343.594 136.953 347.703 136.953C351.812 136.953 354.734 139.438 354.734 142.953C354.734 145.406 353.344 147.328 351.047 147.969V148.219C353.781 148.797 355.641 151.125 355.641 153.969C355.641 157.812 352.391 160.5 347.703 160.5ZM347.703 147.031C350.312 147.031 352.031 145.5 352.031 143.188C352.031 140.891 350.312 139.359 347.703 139.359C345.094 139.359 343.359 140.891 343.359 143.188C343.359 145.5 345.094 147.031 347.703 147.031ZM347.703 158.109C350.766 158.109 352.875 156.328 352.875 153.75C352.875 151.172 350.766 149.391 347.703 149.391C344.641 149.391 342.531 151.172 342.531 153.75C342.531 156.328 344.641 158.109 347.703 158.109ZM367.484 160.5C362.797 160.5 359.531 157.812 359.531 153.969C359.531 151.172 361.344 148.891 364.125 148.219V147.969C361.859 147.344 360.438 145.406 360.438 142.953C360.438 139.438 363.375 136.953 367.484 136.953C371.594 136.953 374.516 139.438 374.516 142.953C374.516 145.406 373.125 147.328 370.828 147.969V148.219C373.562 148.797 375.422 151.125 375.422 153.969C375.422 157.812 372.172 160.5 367.484 160.5ZM367.484 147.031C370.094 147.031 371.812 145.5 371.812 143.188C371.812 140.891 370.094 139.359 367.484 139.359C364.875 139.359 363.141 140.891 363.141 143.188C363.141 145.5 364.875 147.031 367.484 147.031ZM367.484 158.109C370.547 158.109 372.656 156.328 372.656 153.75C372.656 151.172 370.547 149.391 367.484 149.391C364.422 149.391 362.312 151.172 362.312 153.75C362.312 156.328 364.422 158.109 367.484 158.109Z" fill="#0090CD"/>
<path d="M446.547 160.516C441.641 160.516 438.938 156.328 438.938 148.734C438.938 141.141 441.641 136.953 446.547 136.953C451.438 136.953 454.156 141.141 454.156 148.734C454.156 156.328 451.438 160.516 446.547 160.516ZM441.672 148.734C441.672 149.625 441.719 150.453 441.781 151.219L450.875 143.625C450.141 140.828 448.672 139.391 446.547 139.391C443.359 139.391 441.672 142.609 441.672 148.734ZM446.547 158.078C449.734 158.078 451.406 154.844 451.406 148.734C451.406 147.828 451.375 147 451.297 146.219L442.234 153.875C442.969 156.641 444.422 158.078 446.547 158.078ZM466.312 160.094C464.766 160.094 463.484 158.797 463.484 157.203C463.484 155.625 464.766 154.328 466.312 154.328C467.859 154.328 469.141 155.625 469.141 157.203C469.141 158.797 467.859 160.094 466.312 160.094ZM486.172 160.5C481.484 160.5 478.219 157.812 478.219 153.969C478.219 151.172 480.031 148.891 482.812 148.219V147.969C480.547 147.344 479.125 145.406 479.125 142.953C479.125 139.438 482.062 136.953 486.172 136.953C490.281 136.953 493.203 139.438 493.203 142.953C493.203 145.406 491.812 147.328 489.516 147.969V148.219C492.25 148.797 494.109 151.125 494.109 153.969C494.109 157.812 490.859 160.5 486.172 160.5ZM486.172 147.031C488.781 147.031 490.5 145.5 490.5 143.188C490.5 140.891 488.781 139.359 486.172 139.359C483.562 139.359 481.828 140.891 481.828 143.188C481.828 145.5 483.562 147.031 486.172 147.031ZM486.172 158.109C489.234 158.109 491.344 156.328 491.344 153.75C491.344 151.172 489.234 149.391 486.172 149.391C483.109 149.391 481 151.172 481 153.75C481 156.328 483.109 158.109 486.172 158.109ZM500.469 160L510.703 140.125V139.922H498.469V137.453H513.516V140L503.406 160H500.469Z" fill="#878787"/>
<path d="M80.0781 94.3125C75.5938 94.3125 72.7344 91.3906 72.7344 86.8125V84.25C72.7344 79.6719 75.5938 76.75 80.0781 76.75C84.5625 76.75 87.4219 79.6719 87.4219 84.25V86.8125C87.4219 91.3906 84.5625 94.3125 80.0781 94.3125ZM80.0781 79.0938C77.1719 79.0938 75.3594 81.1562 75.3594 84.4844V86.5625C75.3594 89.9062 77.1719 91.9531 80.0781 91.9531C82.9844 91.9531 84.7969 89.9062 84.7969 86.5625V84.4844C84.7969 81.1562 82.9844 79.0938 80.0781 79.0938ZM97.0312 84.6562L104.422 77.0469H107.641L101.062 83.7656L108.109 94H104.953L99.1719 85.5781L96.8281 87.8281V94H94.1719V70.3906H96.8281V84.6562H97.0312ZM127.047 94H113V91.7969H118.797V72.5938H113.047V70.3906H121.453V91.7969H127.047V94ZM146.484 82.3281H143.859C143.531 80.3438 141.875 79.0938 139.688 79.0938C136.734 79.0938 135.094 81.1094 135.094 84.75V86.2812C135.094 89.9219 136.734 91.9219 139.688 91.9219C141.875 91.9219 143.531 90.6875 143.859 88.75H146.484C146.062 92.2031 143.484 94.3125 139.734 94.3125C135.125 94.3125 132.438 91.4844 132.438 86.625V84.4062C132.438 79.5469 135.125 76.7188 139.734 76.7188C143.484 76.7188 146.047 78.8438 146.484 82.3281ZM152.25 94V70.3906H154.812V80.0469H155.031C155.922 77.9375 157.875 76.75 160.469 76.75C164.156 76.75 166.156 78.9688 166.156 83.0156V94H163.5V83.6875C163.5 80.6406 162.25 79.1875 159.594 79.1875C156.797 79.1875 154.906 81.1406 154.906 84.0312V94H152.25ZM175.578 82.7188C175.578 77.4219 177.172 72.8125 180.281 69.2812H182.922C179.688 73.8281 178.328 77.8125 178.328 82.7188C178.328 87.625 179.688 91.6094 182.922 96.1562H180.281C177.172 92.625 175.578 88.0312 175.578 82.7188ZM372.594 96.1406H370L380.984 69.3125H383.594L372.594 96.1406ZM459.328 82.7188C459.328 88.0312 457.734 92.625 454.625 96.1562H451.984C455.219 91.6094 456.578 87.625 456.578 82.7188C456.578 77.8125 455.219 73.8281 451.984 69.2812H454.625C457.734 72.8125 459.328 77.4219 459.328 82.7188Z" fill="black"/>
<path d="M204.594 94L202.641 87.5312H194.797L192.828 94H190.031L197.297 71.4531H200.234L207.5 94H204.594ZM198.688 74.7656L195.516 85.1719H201.922L198.766 74.7656H198.688ZM224.375 94L222.422 87.5312H214.578L212.609 94H209.812L217.078 71.4531H220.016L227.281 94H224.375ZM218.469 74.7656L215.297 85.1719H221.703L218.547 74.7656H218.469Z" fill="#C63232"/>
<path d="M258.531 94H251.156V71.4531H258.453C262.609 71.4531 265.109 73.5312 265.109 77.0312C265.109 79.5156 263.5 81.5625 261.234 81.9531V82.1875C264.266 82.4844 266.25 84.6875 266.25 87.7031C266.25 91.6562 263.375 94 258.531 94ZM253.891 73.8281V81.1875H257.406C260.609 81.1875 262.328 79.8906 262.328 77.5156C262.328 75.1562 260.703 73.8281 257.828 73.8281H253.891ZM253.891 91.6094H257.938C261.516 91.6094 263.391 90.2031 263.391 87.5156C263.391 84.8594 261.5 83.4844 257.844 83.4844H253.891V91.6094ZM278.312 94H270.938V71.4531H278.234C282.391 71.4531 284.891 73.5312 284.891 77.0312C284.891 79.5156 283.281 81.5625 281.016 81.9531V82.1875C284.047 82.4844 286.031 84.6875 286.031 87.7031C286.031 91.6562 283.156 94 278.312 94ZM273.672 73.8281V81.1875H277.188C280.391 81.1875 282.109 79.8906 282.109 77.5156C282.109 75.1562 280.484 73.8281 277.609 73.8281H273.672ZM273.672 91.6094H277.719C281.297 91.6094 283.172 90.2031 283.172 87.5156C283.172 84.8594 281.281 83.4844 277.625 83.4844H273.672V91.6094Z" fill="#5AA000"/>
<path d="M317.969 91.8594C320.969 91.8594 322.875 90.0625 322.953 87.1562H325.734C325.734 91.5156 322.578 94.4688 317.969 94.4688C312.672 94.4688 309.594 90.8906 309.594 84.7344V80.7188C309.594 74.5625 312.672 70.9844 317.969 70.9844C322.719 70.9844 325.656 73.875 325.75 78.6875H322.953C322.859 75.6406 320.844 73.5938 317.953 73.5938C314.312 73.5938 312.406 76.0469 312.406 80.7188V84.7344C312.406 89.4062 314.312 91.8594 317.969 91.8594ZM337.75 91.8594C340.75 91.8594 342.656 90.0625 342.734 87.1562H345.516C345.516 91.5156 342.359 94.4688 337.75 94.4688C332.453 94.4688 329.375 90.8906 329.375 84.7344V80.7188C329.375 74.5625 332.453 70.9844 337.75 70.9844C342.5 70.9844 345.438 73.875 345.531 78.6875H342.734C342.641 75.6406 340.625 73.5938 337.734 73.5938C334.094 73.5938 332.188 76.0469 332.188 80.7188V84.7344C332.188 89.4062 334.094 91.8594 337.75 91.8594Z" fill="#0090CD"/>
<path d="M408.969 71.4531H415.281C421.672 71.4531 424.891 75.2188 424.891 82.6875C424.891 90.2188 421.672 94 415.281 94H408.969V71.4531ZM411.734 73.9844V91.4688H415.031C419.812 91.4688 422.078 88.6719 422.078 82.7031C422.078 76.7969 419.797 73.9844 415.031 73.9844H411.734ZM428.75 71.4531H435.062C441.453 71.4531 444.672 75.2188 444.672 82.6875C444.672 90.2188 441.453 94 435.062 94H428.75V71.4531ZM431.516 73.9844V91.4688H434.812C439.594 91.4688 441.859 88.6719 441.859 82.7031C441.859 76.7969 439.578 73.9844 434.812 73.9844H431.516Z" fill="#878787"/>
<path d="M184.234 10.0781L180.672 18.9844H178.047L182.906 7.45312H185.844L190.688 18.9844H188.078L184.5 10.0781H184.234Z" fill="black"/>
<path d="M209.984 30L208.031 23.5312H200.188L198.219 30H195.422L202.688 7.45312H205.625L212.891 30H209.984ZM204.078 10.7656L200.906 21.1719H207.312L204.156 10.7656H204.078ZM229.766 30L227.812 23.5312H219.969L218 30H215.203L222.469 7.45312H225.406L232.672 30H229.766ZM223.859 10.7656L220.688 21.1719H227.094L223.938 10.7656H223.859Z" fill="#C63232"/>
<path d="M244.141 30H236.766V7.45312H244.062C248.219 7.45312 250.719 9.53125 250.719 13.0312C250.719 15.5156 249.109 17.5625 246.844 17.9531V18.1875C249.875 18.4844 251.859 20.6875 251.859 23.7031C251.859 27.6562 248.984 30 244.141 30ZM239.5 9.82812V17.1875H243.016C246.219 17.1875 247.938 15.8906 247.938 13.5156C247.938 11.1562 246.312 9.82812 243.438 9.82812H239.5ZM239.5 27.6094H243.547C247.125 27.6094 249 26.2031 249 23.5156C249 20.8594 247.109 19.4844 243.453 19.4844H239.5V27.6094ZM263.922 30H256.547V7.45312H263.844C268 7.45312 270.5 9.53125 270.5 13.0312C270.5 15.5156 268.891 17.5625 266.625 17.9531V18.1875C269.656 18.4844 271.641 20.6875 271.641 23.7031C271.641 27.6562 268.766 30 263.922 30ZM259.281 9.82812V17.1875H262.797C266 17.1875 267.719 15.8906 267.719 13.5156C267.719 11.1562 266.094 9.82812 263.219 9.82812H259.281ZM259.281 27.6094H263.328C266.906 27.6094 268.781 26.2031 268.781 23.5156C268.781 20.8594 266.891 19.4844 263.234 19.4844H259.281V27.6094Z" fill="#5AA000"/>
<path d="M283.797 27.8594C286.797 27.8594 288.703 26.0625 288.781 23.1562H291.562C291.562 27.5156 288.406 30.4688 283.797 30.4688C278.5 30.4688 275.422 26.8906 275.422 20.7344V16.7188C275.422 10.5625 278.5 6.98438 283.797 6.98438C288.547 6.98438 291.484 9.875 291.578 14.6875H288.781C288.688 11.6406 286.672 9.59375 283.781 9.59375C280.141 9.59375 278.234 12.0469 278.234 16.7188V20.7344C278.234 25.4062 280.141 27.8594 283.797 27.8594ZM303.578 27.8594C306.578 27.8594 308.484 26.0625 308.562 23.1562H311.344C311.344 27.5156 308.188 30.4688 303.578 30.4688C298.281 30.4688 295.203 26.8906 295.203 20.7344V16.7188C295.203 10.5625 298.281 6.98438 303.578 6.98438C308.328 6.98438 311.266 9.875 311.359 14.6875H308.562C308.469 11.6406 306.453 9.59375 303.562 9.59375C299.922 9.59375 298.016 12.0469 298.016 16.7188V20.7344C298.016 25.4062 299.922 27.8594 303.578 27.8594Z" fill="#0090CD"/>
<path d="M315.453 7.45312H321.766C328.156 7.45312 331.375 11.2188 331.375 18.6875C331.375 26.2188 328.156 30 321.766 30H315.453V7.45312ZM318.219 9.98438V27.4688H321.516C326.297 27.4688 328.562 24.6719 328.562 18.7031C328.562 12.7969 326.281 9.98438 321.516 9.98438H318.219ZM335.234 7.45312H341.547C347.938 7.45312 351.156 11.2188 351.156 18.6875C351.156 26.2188 347.938 30 341.547 30H335.234V7.45312ZM338 9.98438V27.4688H341.297C346.078 27.4688 348.344 24.6719 348.344 18.7031C348.344 12.7969 346.062 9.98438 341.297 9.98438H338Z" fill="#878787"/>
<mask id="mask0_0_1" style="mask-type:alpha" maskUnits="userSpaceOnUse" x="0" y="35" width="536" height="96">
<rect opacity="0.5" y="99" width="536" height="32" fill="#D9D9D9"/>
<rect opacity="0.5" x="75" y="35" width="386" height="32" fill="#D9D9D9"/>
</mask>
<g mask="url(#mask0_0_1)">
<path d="M215.908 32.5987L187.908 134.599" stroke="#C63232" stroke-width="4"/>
<path d="M258.908 32.5987L263.908 134.599" stroke="#5AA000" stroke-width="4"/>
<path d="M300.908 32.5987L345.908 134.599" stroke="#0090CD" stroke-width="4"/>
<path d="M346.908 32.5987L471.908 134.599" stroke="#878787" stroke-width="4"/>
</g>
</svg>
